<?xml version="1.0" encoding="utf-8"?>
<!-- Generator: Adobe Illustrator 21.0.0, SVG Export Plug-In . SVG Version: 6.00 Build 0)  -->
<svg version="1.1" id="Layer_1" xmlns="http://www.w3.org/2000/svg" xmlns:xlink="http://www.w3.org/1999/xlink" x="0px" y="0px"
	 viewBox="0 0 1280 1024" style="enable-background:new 0 0 1280 1024;" xml:space="preserve">
<style type="text/css">
	.st0{fill:#020202;}
	.st1{fill:#030303;}
	.st2{fill:#040404;}
	.st3{fill:#010101;}
	.st4{fill:#060606;}
	.st5{fill:#050505;}
	.st6{fill:#CECECE;}
	.st7{fill:#A7A7A7;}
	.st8{fill:#E0E0E0;}
	.st9{fill:#E7E7E7;}
	.st10{fill:#F3F3F3;}
	.st11{fill:#EFEFEF;}
	.st12{fill:#ECECEC;}

.st0,.st2 { 
	animation: left 300ms ease-in-out forwards infinite; 
}

.st1,.st3 , .st12{ 
	animation: right 300ms ease-in-out forwards infinite; 

}

	

	@keyframes left { 
	0% { 
	transform:translateX(0px); 
	opacity: 1; 
	}
	50% {

	transform: translateX(10px); 
	opacity: 0.7; 
	}
	100% { 
	transform:translateX(0px); 
	opacity: 1; 
	}
	}


	
	@keyframes right { 
	0% { 
	transform:translateX(0px); 
	}
	50% {

	transform: translateX(-10px); 
	}
	100% { 
	transform:translateX(0px); 
	}
	}

</style>
<g>
	<path class="st0" d="M689.5,491.8c-8.4,1.4-16.7,3.3-25.2,4c-1.3,0-2.6-0.2-2.8,1.7c-8.1,1.3-16.3,2.6-24.4,3.9c-1.1,0-2.2,0-3.2,0
		c-2.7-16.8-5.2-33.6-7-50.5c-0.1-0.8,0.3-2.4-0.8-2.3c-1.7,0.2-0.7,2-1,3.1c-0.8,11.3-1.6,22.6-3.9,33.8c-0.8,0-1.7,0-2.5,0
		c-10.9-1.3-21.9-2.7-32.8-4c-0.5-2.2-2.3-1.4-3.7-1.6c-6.2-0.7-12.3-1.4-18.5-2c-3.2-0.3-2.5-2.5-2.3-4.4
		c1.7-15.4,3.4-30.8,5.1-46.2c0.9-7.7,1.9-15.4,2.8-23.1c0.8,0,1.6,0,2.4,0c10.9,1.3,21.9,2.6,32.8,3.9c0.5,2.3,2.4,1.5,3.8,1.6
		c6.3,0.7,12.6,1.4,18.9,2c1.9,0.2,2.7,1,2.3,3c-0.5,3.2-0.7,6.5-1.2,9.6c-0.5,2.8,0.5,3.5,3.2,3c3.8-0.7,7.6-1.1,11.4-1.7
		c1.3,0,2.7,0.2,2.9-1.6c8.1-1.3,16.3-2.6,24.4-3.9c1.2,0,2.5,0.1,2.8-1.6c8-1.4,8.2-1.4,9.1,5.1c3.1,21.6,6,43.2,9,64.8
		c0.1,0.6-0.1,1.2-0.1,1.8C689.9,490.5,689.6,491.1,689.5,491.8z M666.3,478.9c-1.5-2.2-1-5.3-3.3-7.2c0.3,2.8,0.3,5.7,2.4,7.9
		c2.8,5.7,9,6.9,16.6,2.7C676,482.6,670,485.4,666.3,478.9z M655.8,456.6c-4.1-1.6-7.3,0.9-11.8,1.8c4.9,2.6,8-1.9,11.8-0.9
		c3.1,3,5.4,6.5,6.3,11C663,462.9,660.5,458.5,655.8,456.6z M582.9,416.3c-0.9-1-2.3-1.5-2.9-0.4c-0.5,0.9,0.9,1.2,1.8,1.3
		c4.9,0.8,1.6,4.3,2.2,6.6c-1.3,12.6-2.6,25.3-3.9,37.9c0,0,0-0.1,0-0.1c0.2,1.7-1.5,4.1,1.9,4.6c6.2,1,12.4,2.5,18.7,0.4
		c8.3-2.9,11.4-9.7,12.9-17.6c3-18.6-1.8-26-15.7-30.7C592.8,417.6,587.9,417,582.9,416.3z M639.3,450.5c1.1-2.6,0.3-4.4,0-6.2
		c-0.5-2.6-0.4-4.5,3.2-4.6c2.7-0.1,5.4-0.9,8.1-1.5c-0.1-0.5-0.2-0.9-0.3-1.4c-5.6,1-11.2,1.9-16.8,2.9c1.9,1,4,0.8,4.4,3.6
		C638.1,445.5,637.5,447.9,639.3,450.5z M660.2,449.9c2.7-6.2,0.8-10.9-5.7-11.9C660.3,441.1,659.5,445.7,660.2,449.9z M642.9,480.3
		c1-4.9,0.3-9.6-0.9-14.2c-0.4,0.1-0.8,0.1-1.2,0.2C641.6,470.9,642.2,475.6,642.9,480.3z M641.5,463.7c-1.3-3.7,0.2-8-2.1-11.6
		C639.4,456,639.7,459.9,641.5,463.7z M642.3,458c-0.1,0.3-0.3,0.5-0.2,0.7c0.1,0.2,0.4,0.3,0.7,0.4c0.1-0.2,0.3-0.5,0.2-0.6
		C642.9,458.3,642.6,458.2,642.3,458z"/>
	<path class="st0" d="M933.8,468.7c-6.2-0.6-12.3-1.2-18.5-1.7c-2.5-0.2-1.5-1.9-1.4-3c0.6-7.7,1.3-15.5,2-23.2
		c1.1-12.1,2.5-24.1,3.4-36.2c0.3-3.4,1.6-3.7,4.3-3.3c3.4,0.5,6.8,0.9,10.2,1.3c0.8,2.7,3,1.2,4.6,1.6c9.9,1,19.7,2.1,29.6,3
		c2.3,0.2,2.7,1.4,2.5,3.5c-0.5,4.9-0.7,9.9-1.3,14.8c-0.3,2.6,0.4,2.9,2.7,2.4c5-0.9,10.1-1.5,15.2-2.3c1.3,0,2.7,0.2,2.9-1.6
		c8.1-1.3,16.3-2.6,24.4-3.9c1.2,0,2.5,0.1,2.8-1.6c8-1.4,8.2-1.4,9.1,5.1c3.1,21.6,6,43.2,9,64.8c0.1,0.6-0.1,1.2-0.1,1.8
		c-0.8,0.3-1.1,0.9-1.1,1.7c-8.4,1.4-16.7,3.3-25.2,4c-1.3,0-2.6-0.2-2.8,1.7c-8.1,1.3-16.3,2.6-24.4,3.9c-1.1,0-2.2,0-3.2,0
		c-2.4-16.1-4.7-32.3-7.1-48.4c-0.7-4.8-1.2-9.5-1.8-14.3c-0.3-1.1,0.6-2.5-1.2-3.2c-0.9,1-0.6,2.3-0.7,3.4
		c-0.2,10.9-1.9,21.7-2.7,32.5c-0.1,1.7-0.7,1.9-2.3,1.7c-8-1-16.1-1.9-24.1-2.8C937.6,467.6,935.4,469.1,933.8,468.7z
		 M1000.1,457.5c3.1,3,5.4,6.5,6.3,11c0.9-5.6-1.6-10-6.3-11.9c-4.1-1.6-7.3,0.9-11.8,1.8C993.3,461,996.3,456.6,1000.1,457.5z
		 M1010.6,478.9c-1.5-2.2-1-5.3-3.3-7.2c0.3,2.8,0.3,5.7,2.4,7.9c2.8,5.7,9,6.9,16.6,2.7C1020.3,482.6,1014.3,485.4,1010.6,478.9z
		 M941.5,421c-1.5,3.2-2.8,5.9-4.1,8.8c-1.3,3-2.5,6-3.8,8.9c-2.5,5.6-5,11.3-7.6,16.9c-0.7,1.4-1,2.9,0.4,3.6
		c2.4,1.1,1.7-1.6,2.2-2.5c1.3-1.9,2-4.2,3-6.2c0.5-1.1,0.8-2.5,2.5-2.3c5.6,0.6,11.5,0.4,16.5,2.3c2.7,1,2.1,6.4,2.9,9.8
		c0,0.1,0.1,0.3,0.2,0.4c0.6,0.7,0.2,2.5,1.8,2.1c1.8-0.4,1.3-1.7,1-3c-3-13.3-6.1-26.6-8.9-39.9c-0.4-1.7-0.9-2.4-2.6-2.6
		c-3.7-0.3-7.4-0.7-11.1-1.2c-1.2-0.1-2.3-0.3-2.2,1.4c0,1.2,0.1,2.4,1.9,2.5C936.2,420.2,938.6,420.6,941.5,421z M977.5,440.3
		c8.2-0.4,2.5,7.3,6.3,9.7c0.5-1.6,0.4-3,0-4.5c-1.1-3.6-0.8-6,3.9-6c2.4,0,4.7-0.8,7.1-1.3C988.9,437.2,983.4,438.8,977.5,440.3z
		 M999.7,438.1c4.6,3.1,4.1,7.7,4.8,12.7C1007.1,443.7,1005.3,439,999.7,438.1z M987.2,480.2c1.1-4.8,0.2-9.6-0.8-14.2
		c-0.4,0.1-0.8,0.1-1.2,0.2C985.9,470.9,986.5,475.6,987.2,480.2z M983.6,452.1c0.7,3.9-0.2,8.1,2.3,11.7
		C984.5,460,986,455.8,983.6,452.1z M987.4,458.6c-0.3-0.2-0.5-0.4-0.7-0.5c0,0-0.3,0.3-0.2,0.3c0.1,0.2,0.3,0.5,0.5,0.7
		C987,458.9,987.2,458.7,987.4,458.6z"/>
	<path class="st1" d="M265.9,467.8c0.3,4.4-1.3,5.4-5.9,5c-14.7-1.2-29-4.8-43.7-5.8c-2.1-0.1-2.2-1.2-2-2.7
		c1.3-14.1,2.7-28.2,4-42.2c0.5-5.7,1.3-11.5,1.5-17.2c0.1-3.2,1.2-3.9,4.2-3.7c9.7,0.8,19.1,3.8,28.8,4.3c5.1,0.3,10.2,1,15.3,1.7
		c2,0.3,3.2-0.2,2.9-2.3c-0.3-3,1.6-3,3.5-2.6c14.9,3.2,30.2,2.7,45.2,4.3c2.6,0.3,2.4,1.6,2.3,3.4c-1.2,19.1-2.3,38.2-3.4,57.3
		c-0.3,5-0.7,9.9-0.8,14.9c-0.1,2.4-0.8,3.5-3.6,3.3c-15-1.3-30.1-2.4-45.1-3.5c-2.3-0.2-2.8-1-2.6-3.1c0.4-3.7,0.4-7.4,0.6-11.2
		c1-4,0.2-8.1,0.8-12.2c0.7-8.3,1.6-16.5,1.3-25.4c-0.8,8.9-1.6,17.1-2.3,25.4C266.5,459.7,266.2,463.8,265.9,467.8z M282.4,454.8
		c0.3,0.3,0.7,0.8,0.8,0.8c0.8-0.5,0.3-0.9-0.1-1.4c-0.9-0.9-0.4-2.9-2.3-3.3C280.4,452.7,281,454,282.4,454.8z M279,433.2
		c-1,4.3-1.2,8.7-0.1,13c-0.2,1.6,0,2.9,1.6,3.9c0.5-1.5,0.3-2.7-0.5-3.9c-0.3-4.3-0.6-8.7,0.4-13c1-2.9,2-5.7,3-8.6
		C280.6,427,279.4,429.9,279,433.2z M294.6,469.1c-1.9-0.1-3.7-0.1-5.6-0.2c-1.8,0.2-5.1-1.3-5,0.4c0,2.5,3.3,0.9,5.1,1.4
		c2.1,0.3,4.3,0.7,6.4,0.8c8,0.4,9.8-1.3,10.3-9.3c0.3-3.7,0.5-7.4,0.7-11.2c1.1-11.7-5.2-16.5-16.2-12.3c0.2,0.2,0.4,0.5,0.6,0.6
		c1.1,0.2,2.1,0.3,3.2,0.4c10.6,0.8,10.6,0.7,10.9,11.3c-0.3,4.3-0.7,8.6-1,12.9c-0.2,2.6-1.2,4.4-3.7,5.1
		C298.5,469,296.5,469,294.6,469.1z M242,421c-1.1,2.6-2.1,4.8-3.1,7.1c-4.1,9.2-8.1,18.3-12.3,27.4c-0.6,1.4-1,3,0.3,3.7
		c2.3,1.1,1.8-1.4,2.3-2.4c1-1.9,1.7-3.9,2.8-5.8c0.6-1.1,0.8-3,2.7-2.8c5.5,0.6,11.4,0.4,16.5,2.3c2.8,1.1,2.1,6.3,3.1,9.6
		c0.3,1.1,0.1,2.9,1.9,2.6c2.2-0.4,1.2-2.2,0.9-3.4c-2.9-13.1-5.9-26.3-8.8-39.4c-0.3-1.5-0.7-2.5-2.5-2.6
		c-3.7-0.2-7.4-0.7-11.1-1.2c-1.2-0.1-2.3-0.3-2.4,1.3c0,1.3,0.3,2.4,2,2.6C236.8,420.2,239.2,420.6,242,421z M297.6,417.5
		c-6-1.9-8.8-0.9-11.8,3.9C289.6,419.6,293.1,417.2,297.6,417.5z M299.1,418.3c3,3.2,6.4,5.5,7.1,9.7
		C306.7,422.7,304.2,419.3,299.1,418.3z M288.4,459.7c3.7,2.8,7.8,2.8,12.1,1.6C296.6,460.1,292.4,460.8,288.4,459.7z"/>
	<path class="st1" d="M455.6,481.6c-2.5,0.8-3.7,0.5-4-2.8c-1.3-14.9-3-29.8-4.5-44.7c0-2,0-4.1,0-6.1c-0.1,2.1-1.7,4-1.1,6.1
		c-0.7,16.5-1.4,33-1.9,49.5c-0.1,4.1-1.5,5.1-5.4,4.8c-7.4-0.7-14.9-0.8-22.4-1.1c-0.4-2-1.9-1.6-3.3-1.7c-2.9,0-5.9,0-8.8,0
		c-4.3-0.1-8.7-0.5-13-0.2c-3.9,0.3-4.7-1.2-4.5-4.8c0.6-13.6,1.1-27.3,1.6-41c0.3-9.8,0.7-19.6,0.9-29.3c0-1.7,0-3,2.5-2.8
		c5.1,0.4,10.2,0.5,15.3,0.7c3,3.5,6.9,0.8,10.3,1.6c9.1,0.3,18.2,0.6,27.3,0.9c1.8,0,2.7,0.6,2.2,2.4c-1,3.6,1.1,3.3,3.5,3.1
		c2.8-0.2,5.4-1.3,8.3-0.8c1.4-0.2,3.2,0.6,3.7-1.6c10.2-1.3,20.3-2.5,30.5-3.9c2.1-0.3,2.3,0.5,2.4,2.1c1.9,20.1,3.9,40.2,6,60.2
		c0.1,1.2,0.3,2.3-1.5,2c-1.4,0.2-3.2-0.7-3.7,1.6c-11.9,1.3-23.7,2.7-35.6,4C458.6,480.3,456.4,478.9,455.6,481.6z M429.4,451.8
		c-0.1,0.2-0.2,0.3-0.3,0.5c0.2-0.1,0.3-0.2,0.5-0.3c0.1-0.2,0.1-0.3,0.2-0.5C429.6,451.6,429.5,451.7,429.4,451.8z M428.5,446.3
		c-2.9-1.2-5,2.6-7.3,1.7c-3.9-1.6-8.9,0-11.5-2c-3.2-2.5-0.2-7.7-0.8-11.8c-0.1-0.6,0-1.2,0-1.9c0.2-8.3,0.2-8.3,8.4-8.4
		c1,1.3,2.5,1.5,4.1,1.8c10.4,1.4,13,5.1,10.8,15.3c-0.2,0.8-1.7,2,0.1,2.5c1.3,0.4,1.7-0.8,2-1.9c2.7-8.8,0.4-16.2-11.4-18.5
		c-6.6-1.6-13.3-1.1-19.9-1.8c-0.9-0.1-2.5-0.7-2.4,1.1c0,1.6,1.6,1.4,2.5,1.3c3.8-0.6,4.2,1.3,4,4.5c-0.7,11.5-1,23-1.7,34.5
		c-0.9,13.9-1,13.9,12.8,14.4c1.1,0,2.2,0,3.3,0.1c5.8,0.6,10.7-1.4,13.1-6.5c2.7-5.7,2.4-11.8-2.2-16.9c-0.1-0.4-0.2-0.8-0.3-1.2
		c-0.2,0.3-0.4,0.6-0.6,0.9c-1,0.3-3-0.3-0.6,1.8c3.9,3.5,3.3,8.3,1.9,12.9c-1.3,4.4-4.8,5.4-8.6,5.5c-4.5,0.1-9-0.3-13.5-0.1
		c-2.9,0.1-3.3-1.2-3-3.6c0.3-3.1,0.3-6.2,0.4-9.3c0.2-12.1,0.2-12.2,12.6-10.4c3.4,0.5,7.2,2.9,8.3-2.9c0.5,0.2,1.1,0.7,1.5,0
		c0.2-0.3-0.1-0.8-0.1-1.2C429.5,446.1,429,446.2,428.5,446.3z M490,446.8c-0.2-6.3-1.3-12.1-4.6-17.1c-2.9-4.4-6.8-8-12.8-7.6
		c-6,0.3-10,3.6-12.5,8.6c-5.8,11.9-4.1,23.1,3.6,33.6c4,5.4,15.8,5.5,20.1,0.3C488.2,459.3,489.7,453.1,490,446.8z"/>
	<path class="st2" d="M209.8,443.5c0,12.9-0.1,25.9,0.1,38.8c0.1,3.8-1.1,5-5,4.9c-19.5-0.2-39-0.2-58.5,0c-3.6,0-4.4-1.2-4.4-4.5
		c0.1-26.3,0.1-52.7,0-79c0-2.6,0.6-3.4,3.3-3.4c20.4,0.1,40.8,0.1,61.3,0c2.8,0,3.3,0.9,3.3,3.5C209.8,417,209.8,430.2,209.8,443.5
		z M178.2,473.1c-1.8-1.1-1.6-2.5-2-3.6c-4.9-16.2-10.1-32.2-14.6-48.5c-1.2-4.3-3.6-3.8-6.4-3.8c-0.9,0-1.9,0-1.9,1.4
		c0,1.1,0,2.4,1.6,2.2c3.7-0.6,4.1,1.9,4.9,4.6c4.9,16.3,10,32.6,15,48.9c0.5,1.6,0.8,2.5,2.6,2.4c1.8,0,2.6-0.4,3.1-2.4
		c3.8-12.9,7.9-25.8,11.8-38.6c1.6-5,3.2-10,4.7-15.1c0.3-1,1.1-2.6-0.6-3.2c-1.9-0.7-1.8,1-2.1,2.2c-0.5,1.8-1.2,3.5-1.7,5.3
		C188,440.8,183.1,456.8,178.2,473.1z"/>
	<path class="st1" d="M1090.2,393.7c3.8-1.4,4.5,0.7,4.8,4.8c1.9,26.7,4.1,53.3,6.2,79.9c0.3,3.1-0.1,4.7-3.9,4.9
		c-9,0.5-18,1-26.9,2.5c-7.8,1.3-15.6,2.1-23.4,2.9c-2.6,0.3-3.1-0.5-3.3-2.9c-2-27.3-4.1-54.5-6.3-81.8c-0.3-3.3,0.4-4.6,4.1-5.2
		C1057.5,396.5,1073.5,395.1,1090.2,393.7z M1079.7,423.7c-8,2-16.1,2.8-24.3,3.1c-3.2,0.1-3.9,1.4-3.9,4.5c0.1,3.8,2.4,2.7,4.4,2.7
		c2-0.1,4.1-0.1,6-0.5c2.7-0.6,3.6-0.3,3.8,2.9c0.7,12.9,1.9,25.7,2.7,38.6c0.1,2.2,0.7,2.9,3,2.8c3.4-0.1,3.5-1.9,3.3-4.5
		c-1-10.7-1.9-21.4-2.6-32c-0.5-8.4-0.4-8.7,8.1-9.2c4-0.2,4.1-2.1,4.1-5.3C1084.3,422.8,1081.9,423.8,1079.7,423.7z"/>
	<path class="st0" d="M557.6,450.4c0,11.8-0.1,23.7,0.1,35.5c0,2.9-0.8,3.6-3.6,3.6c-15.1-0.1-30.2-0.1-45.3,0
		c-2.8,0-3.6-0.6-3.6-3.6c0.1-24,0.1-48,0-72c0-2.7,0.8-3.3,3.4-3.3c15.3,0.1,30.5,0.2,45.8,0c3.2,0,3.4,1.3,3.4,3.8
		C557.6,426.4,557.6,438.4,557.6,450.4z M546.4,472.1c-7.6-14.5-14.6-27.8-21.6-41c-1.1-2.1-7.9-3.7-9.1-2c-0.9,1.3-1.5,3.9,0.9,3.9
		c3.6,0.1,2.6,2.2,2.6,4c0,12.5,0,24.9,0.1,37.4c0,1.2-1.1,3.5,1.6,3.5c2.6,0,1.8-2.1,1.8-3.4c0-11.4,0-22.7,0.1-34.1
		c0-1.1-0.7-2.4,1-3.4c6.7,12.7,13.4,25.3,19.8,38.1c1.1,2.3,2.2,3.3,4.5,2.8c2.6-0.5,1.5-2.8,1.5-4.2c0.1-13.7,0.1-27.4,0-41.1
		c0-1.4,1.2-3.9-1.8-3.8c-2.6,0.1-1.3,2.4-1.3,3.7C546.3,445.1,546.4,457.8,546.4,472.1z"/>
	<path class="st3" d="M909.4,451.4c0,11.7-0.1,23.4,0.1,35.1c0,2.8-0.4,4-3.7,4c-13.6-0.2-27.1-0.2-40.7,0c-3.1,0-3.5-1-3.5-3.7
		c0.1-23.5,0.1-47.1,0-70.6c0-2.7,0.4-3.8,3.5-3.7c13.6,0.2,27.1,0.2,40.7,0c3.3-0.1,3.7,1.1,3.7,4
		C909.3,428,909.4,439.7,909.4,451.4z M881.4,456.4c0-5.1,0-10.3,0-15.4c0-1.4-0.1-2.5-2-2.2c-1.5,0.2-3.2-0.7-4.3,0.8
		c-0.5,0.7-0.1,2.4,0.7,2.5c4.5,0.4,2.8,3.7,2.9,5.9c0.2,4.8-0.1,9.7,0.1,14.5c0.2,5.1-2.3,12,1,14.7c3.2,2.5,9.8,0.7,14.9,0.9
		c0.3,0,0.6,0,0.9,0c1.6,0.1,2.7-0.1,2.6-2.2c-0.1-1.9-1.2-1.8-2.5-1.8c-3.6,0-7.2-0.2-10.7,0.1c-2.7,0.2-3.9-0.5-3.7-3.5
		C881.6,465.8,881.4,461.1,881.4,456.4z"/>
	<path class="st4" d="M383.3,451.4c0,10.9-0.1,21.8,0.1,32.7c0,3-0.8,4-3.9,3.9c-16.4-0.2-32.7-0.1-49.1,0c-2.9,0-4-0.5-4-3.8
		c0.2-21.8,0.1-43.7,0-65.5c0-3,0.7-4.1,3.8-4c16.4,0.1,32.7,0.1,49.1,0c3.4,0,4.1,1.2,4,4.4C383.1,429.9,383.3,440.7,383.3,451.4z
		 M374.4,476.7c-0.4-1.5-0.5-2-0.6-2.4c-4.9-14.6-9.8-29.3-14.5-44c-0.5-1.6-1.4-1.8-2.7-1.8c-4.4,0-8.7,0.1-13.1,0
		c-1.8,0-2.4,0.7-2.4,2.4c0,2.1,1.1,2.2,2.7,2.1c1.7-0.1,3.4,0.2,5.1-0.1c3.1-0.4,3.3,1.1,2.5,3.4c-1.5,4.5-3.1,9.1-4.6,13.6
		c-2.7,7.9-5.4,15.8-8,23.7c-0.5,1.4-1.1,3.1,1,3.9c1.9,0.7,2-1,2.4-2.1c1.3-3.6,1.1-8.4,4.1-10.5c3.2-2.2,7.9-0.5,11.9-0.8
		c0.2,0,0.3,0,0.5,0c7.7,0,7.7,0,10.2,7.2c0.6,1.6,1.1,3.2,1.6,4.8c0.4,1.1,0.8,2.1,2.3,1.5C373.7,477.4,374.4,476.9,374.4,476.7z"
		/>
	<path class="st2" d="M742.9,454.2c0,10.7-0.1,21.4,0.1,32.2c0,2.8-0.6,3.7-3.6,3.5c-14-0.9-27.9-1.7-41.9-2.2
		c-3-0.1-3.6-0.9-3.5-3.7c1-21.9,1.9-43.8,2.8-65.7c0.1-2,0.3-3.1,2.8-2.9c14.4,0.9,28.9,1.7,43.3,2.3c2.9,0.1,3,1.7,2.9,3.9
		c-0.6,10.9-1,21.7-1.5,32.6C743.8,454.2,743.3,454.2,742.9,454.2z M712.8,464.8c0-2.2,0.2-4.4-0.1-6.5c-0.4-3,0.7-3.5,3.6-3.2
		c4.6,0.5,9.3,0.4,14,0.8c1.8,0.1,3,0.2,3.1-2.1c0.1-2.1-1.1-2.1-2.6-2.2c-3.6-0.1-7.1-0.4-10.7-0.5c-7.1-0.2-7.1-0.2-6.5-7.1
		c0.2-2.3,0.3-4.7,0.2-7c-0.2-2.6,0.2-3.8,3.4-3.4c4.6,0.6,9.3,0.5,14,0.6c1.5,0,3.8,1.4,3.9-1.6c0.1-2.3-2-2.4-3.7-2.5
		c-7.9-0.5-15.8-0.9-23.7-1.4c-1.3-0.1-2.5-0.2-2.6,1.7c0,1.5,0.1,3,2.2,2.7c3.5-0.4,3.2,1.7,3.1,4c-0.6,12.3-1.2,24.5-1.8,36.8
		c-0.1,2.5-0.2,4.4,3.4,4.3c6.2-0.1,12.4,0.6,18.6,0.8c1.1,0,3.1,1.3,3.3-1.1c0.2-2.1-1.4-3.1-3.2-3.2c-3.1-0.2-6.2-0.2-9.3-0.3
		C711.8,474,711.8,473.9,712.8,464.8z"/>
	<path class="st2" d="M805.9,428.5c-0.7,18.8-1.5,37.6-2.1,56.5c-0.1,3-1.1,3.6-3.8,3.4c-16.9-1.1-33.8-2.2-50.6-3.1
		c-3.2-0.2-3-1.9-2.9-4c0.6-15.7,1.2-31.4,1.8-47.1c0.3-7.9,0.7-15.9,0.8-23.8c0-2.4,0.6-2.9,3.2-2.9c17.3,0.2,34.3,3.3,51.6,3.1
		c2.3,0,2.8,0.8,2.7,3c-0.2,5-0.1,9.9-0.1,14.9C806.3,428.5,806.1,428.5,805.9,428.5z M787.7,451.8l0.1,0.1c0-1.2-1.7-2.2-0.4-3.6
		c1.4-1.1,3-2,4.3-3.2c6.2-5.7,4.1-16.9-3.5-19.6c-0.2-1.7-1.5-1.7-2.7-2c-7.4-2.1-15.1-1.6-22.6-2.3c-0.9-0.1-2.5-0.6-2.7,0.9
		c-0.3,2,1.6,1.6,2.6,1.6c3.3-0.3,4,0.9,3.8,4.2c-0.7,15-1,30.1-1.8,45.2c-0.1,2.8,0.8,3.5,3.1,3.6c4.8,0.2,9.6,0.2,14.4,0.6
		c7.1,0.5,13.3-4.8,13.4-13.1C795.7,457.5,792.5,452.5,787.7,451.8z"/>
	<path class="st5" d="M815.1,409.1c6.9,0.8,13.4,1.6,20,2.3c7,0.8,13.9,1.5,20.9,2.1c2.6,0.2,3.9,0.8,3.6,3.9
		c-1.9,20-3.7,39.9-5.4,59.9c-0.2,2.1-0.9,2.6-2.9,2.4c-11.1-1.2-22.3-2.4-33.4-3.6c-2.6-0.3-4.8-2.1-7.5-1.7
		c-1.1,0.2-1.1-0.7-1-1.5C811.4,451.4,813.2,430.1,815.1,409.1z M829.9,426.9c5.9,0.6,11.5,1.1,17.1,1.7c1,0.1,1.9,0.1,2.1-1.2
		c0.2-1.3-0.7-1.4-1.7-1.6c-7.3-2.1-14.9-2.4-22.4-3.3c-1.6-0.2-2.8-0.4-3,1.6c-0.2,1.7,0.8,2.3,2.2,2.3c2.6-0.1,2.8,1,2.5,3.4
		c-1.2,11-2.1,22-3.3,32.9c-0.4,3.2,0.5,4.4,3.7,4.7c5.4,0.4,10.8,1.1,16.2,1.9c0.7,0.1,1.4,1.5,2.3,0.5c0.5-0.6,0.7-1.8,0.5-2.6
		c-0.2-1.2-1.4-1-2.3-1.1c-3.4-0.4-6.8-0.7-10.2-1.1c-5.8-0.6-6.8-1.6-6.5-7.2c0.2-3.3,0.7-6.5,0.8-9.7c0.1-2,0.9-2,2.6-2
		c4.7-0.2,8.8,2.7,13.6,2.4c1.2-0.1,2.5,0.5,2.7-1.5c0.2-2-0.7-2.3-2.4-2.4c-4-0.3-8-0.9-12.1-1.2c-2.6-0.2-3.9-1-3.4-4
		C829.4,435.2,829.5,431.2,829.9,426.9z"/>
	<path class="st2" d="M404.2,485.5c2.9,0,5.9,0,8.8,0c1.4,0,2.9-0.3,3.3,1.7C412.2,487.2,408.2,486.6,404.2,485.5z"/>
	<path class="st2" d="M417.3,409.8c-3.4-0.8-7.3,1.9-10.3-1.6C410.5,408.1,413.9,408.8,417.3,409.8z"/>
	<path class="st6" d="M267.8,455.7c-0.5,4,0.3,8.2-0.8,12.2c-0.4,0-0.8,0-1.2,0c0.3-4.1,0.6-8.1,0.9-12.2
		C267.1,455.7,267.5,455.7,267.8,455.7z"/>
	<path class="st1" d="M938.3,404.2c-1.6-0.4-3.8,1-4.6-1.6C935.5,402.3,936.9,403.3,938.3,404.2z"/>
	<path class="st1" d="M933.8,468.7c1.6,0.4,3.8-1.1,4.6,1.6C936.6,470.6,935.2,469.6,933.8,468.7z"/>
	<path class="st2" d="M455.6,481.6c0.7-2.7,3-1.3,4.6-1.7C458.8,480.8,457.5,481.8,455.6,481.6z"/>
	<path class="st7" d="M446,434.1c-0.6-2.1,1-4,1.1-6.1c0,2,0,4.1,0,6.1C446.8,434.1,446.4,434.1,446,434.1z"/>
	<path class="st2" d="M495.9,475.9c0.5-2.2,2.3-1.4,3.7-1.6C498.4,474.9,497.4,476.2,495.9,475.9z"/>
	<path class="st2" d="M462.2,413.8c-0.5,2.2-2.3,1.4-3.7,1.6C459.7,414.8,460.6,413.6,462.2,413.8z"/>
	<path class="st1" d="M608.1,409.8c-1.4-0.2-3.3,0.7-3.8-1.6C606,407.8,607,408.9,608.1,409.8z"/>
	<path class="st1" d="M978.1,501.5c1.1,0,2.2,0,3.2,0C980.3,501.8,979.2,504.8,978.1,501.5z"/>
	<path class="st1" d="M582,479.9c1.4,0.2,3.2-0.6,3.7,1.6C584.1,481.8,583.2,480.5,582,479.9z"/>
	<path class="st1" d="M967.4,438.9c0-1.2-0.3-2.4,0.7-3.4c1.8,0.8,0.9,2.2,1.2,3.2C968.5,437.7,968,438,967.4,438.9z"/>
	<path class="st1" d="M633.8,501.5c1.1,0,2.2,0,3.2,0C636,501.4,634.9,505.3,633.8,501.5z"/>
	<path class="st1" d="M624.9,451.8c0.3-1.1-0.7-2.9,1-3.1c1.1-0.1,0.7,1.4,0.8,2.3C625.6,449.8,625.4,451.2,624.9,451.8z"/>
	<path class="st1" d="M571.6,404.2c-0.8,0-1.6,0-2.4,0C570,401.7,570.8,404.1,571.6,404.2z"/>
	<path class="st1" d="M1017,418.5c-0.2,1.7-1.5,1.6-2.8,1.6C1015.1,419.6,1015.6,418.2,1017,418.5z"/>
	<path class="st1" d="M645.6,424c-0.2,1.8-1.6,1.7-2.9,1.6C643.6,425,644,423.6,645.6,424z"/>
	<path class="st1" d="M989.8,424c-0.2,1.8-1.6,1.7-2.9,1.6C987.9,425,988.3,423.6,989.8,424z"/>
	<path class="st1" d="M618.5,485.5c0.8,0,1.7,0,2.5,0C620.1,488.7,619.3,485.4,618.5,485.5z"/>
	<path class="st1" d="M661.5,497.5c0.2-1.8,1.6-1.7,2.8-1.7C663.4,496.5,663,498,661.5,497.5z"/>
	<path class="st1" d="M1005.7,497.5c0.2-1.8,1.6-1.7,2.8-1.7C1007.7,496.5,1007.3,498,1005.7,497.5z"/>
	<path class="st1" d="M672.7,418.5c-0.2,1.7-1.5,1.6-2.8,1.6C670.8,419.6,671.3,418.2,672.7,418.5z"/>
	<path class="st1" d="M689.5,491.8c0.1-0.8,0.4-1.4,1.1-1.7C691.4,491.5,690.7,491.8,689.5,491.8z"/>
	<path class="st1" d="M1033.8,491.8c0.1-0.8,0.4-1.4,1.1-1.7C1035.7,491.5,1035,491.8,1033.8,491.8z"/>
	<path class="st3" d="M580,461.7C580,461.7,580,461.7,580,461.7c2.6,1.3,1.9-1,2-2c1.3-11.9,2.4-23.9,3.6-35.9
		c0.1-1.8,0.2-3.6,0.4-5.9c3.9,2.3,8,2.1,11.9,2.8c8.4,1.9,12.5,7.5,14.2,15.5c0.9,4,0.4,8,0.1,11.9c-1.5,8-5.5,14-13.1,17.4
		C592.2,466.7,585.8,465.6,580,461.7z"/>
	<path class="st8" d="M612.1,448.1c0.3-4,0.7-7.9-0.1-11.9c-1.7-8-5.8-13.6-14.2-15.5c0-0.8,0-1.6,0-2.4
		c13.9,4.7,18.6,12.2,15.7,30.7C613.1,448.7,612.6,448.4,612.1,448.1z"/>
	<path class="st6" d="M585.6,423.8c-1.2,12-2.4,23.9-3.6,35.9c-0.1,1,0.7,3.3-2,2.1c1.3-12.6,2.6-25.3,3.9-37.9
		C584.5,423.8,585,423.8,585.6,423.8z"/>
	<path class="st6" d="M612.1,448.1c0.5,0.3,0.9,0.6,1.4,0.9c-1.5,7.9-4.6,14.7-12.9,17.6c-0.5-0.4-1-0.7-1.5-1.1
		C606.6,462.1,610.7,456.1,612.1,448.1z"/>
	<path class="st8" d="M599.1,465.5c0.5,0.4,1,0.7,1.5,1.1c-6.3,2.2-12.4,0.6-18.7-0.4c-3.4-0.5-1.7-2.9-1.9-4.6
		C585.8,465.6,592.2,466.7,599.1,465.5z"/>
	<path class="st7" d="M639.3,450.5c-1.8-2.6-1.2-5-1.5-7.1c-0.4-2.9-2.4-2.6-4.4-3.6c5.6-1,11.2-1.9,16.8-2.9
		c0.1,0.5,0.2,0.9,0.3,1.4c-2.7,0.5-5.4,1.4-8.1,1.5c-3.6,0.1-3.7,2-3.2,4.6C639.6,446.1,640.3,447.9,639.3,450.5z"/>
	<path class="st9" d="M585.6,423.8c-0.6,0-1.1,0-1.7,0c-0.5-2.3,2.8-5.8-2.2-6.6c0.6,0,1-0.3,1.1-0.9c5,0.7,10,1.3,15,2
		c0,0.8,0,1.6,0,2.4c-3.9-0.7-8-0.5-11.9-2.8C585.8,420.2,585.7,422,585.6,423.8z"/>
	<path class="st7" d="M655.8,456.6c4.7,1.9,7.2,6.2,6.3,11.9c-0.9-4.4-3.2-7.9-6.3-11C655.9,457.2,655.9,456.9,655.8,456.6z"/>
	<path class="st7" d="M666.3,478.9c3.7,6.5,9.7,3.7,15.7,3.4c-7.6,4.2-13.8,2.9-16.6-2.7C665.7,479.3,666,479.1,666.3,478.9z"/>
	<path class="st7" d="M660.2,449.9c-0.7-4.2,0.2-8.8-5.7-11.9C661,439,662.8,443.7,660.2,449.9z"/>
	<path class="st6" d="M655.8,456.6c0.1,0.3,0.1,0.6,0,0.9c-3.8-1-6.9,3.5-11.8,0.9C648.5,457.5,651.7,455,655.8,456.6z"/>
	<path class="st7" d="M642.9,480.3c-0.7-4.7-1.4-9.4-2-14.1c0.4-0.1,0.8-0.1,1.2-0.2C643.2,470.7,644,475.4,642.9,480.3z"/>
	<path class="st7" d="M641.5,463.7c-1.9-3.7-2.1-7.7-2.1-11.6C641.8,455.7,640.2,460,641.5,463.7z"/>
	<path class="st7" d="M665.4,479.6c-2.1-2.2-2.1-5.1-2.4-7.9c2.2,1.9,1.8,5,3.3,7.2C666,479.1,665.7,479.3,665.4,479.6z"/>
	<path class="st1" d="M582.9,416.3c-0.1,0.6-0.5,0.9-1.1,0.9c-0.9-0.1-2.3-0.4-1.8-1.3C580.6,414.8,582,415.3,582.9,416.3z"/>
	<path class="st1" d="M642.3,458c0.2,0.1,0.5,0.2,0.7,0.4c0.1,0.1-0.1,0.4-0.2,0.6c-0.2-0.1-0.6-0.2-0.7-0.4
		C642.1,458.6,642.3,458.3,642.3,458z"/>
	<path class="st9" d="M941.5,421c-2.8-0.4-5.3-0.8-7.7-1c-1.8-0.1-1.9-1.3-1.9-2.5c-0.1-1.7,1-1.5,2.2-1.4c3.7,0.5,7.4,0.9,11.1,1.2
		c1.7,0.1,2.2,0.9,2.6,2.6c2.9,13.3,5.9,26.6,8.9,39.9c0.3,1.3,0.8,2.6-1,3c-1.7,0.4-1.2-1.4-1.8-2.1c-0.1-0.1-0.2-0.3-0.2-0.4
		c-0.8-3.4-0.3-8.8-2.9-9.8c-5.1-1.9-11-1.7-16.5-2.3c-1.7-0.2-2,1.3-2.5,2.3c-1,2.1-1.7,4.3-3,6.2c-0.6,0.9,0.2,3.6-2.2,2.5
		c-1.5-0.7-1.1-2.2-0.4-3.6c2.6-5.6,5.1-11.3,7.6-16.9c1.3-3,2.5-6,3.8-8.9C938.7,426.9,940,424.2,941.5,421z M944.9,420.8
		c-3.8,8.5-7.1,15.8-10.5,23.4c5.7,0.6,10.8,1.2,16.2,1.7C948.8,437.7,947,429.9,944.9,420.8z"/>
	<path class="st7" d="M977.5,440.3c5.8-1.6,11.3-3.1,17.2-2.1c-2.4,0.5-4.7,1.3-7.1,1.3c-4.7,0-5,2.4-3.9,6c0.4,1.5,0.5,2.9,0,4.5
		C980.1,447.7,985.7,440,977.5,440.3z"/>
	<path class="st7" d="M1010.6,478.9c3.7,6.5,9.7,3.7,15.7,3.4c-7.6,4.2-13.8,2.9-16.6-2.7C1010,479.3,1010.3,479.1,1010.6,478.9z"/>
	<path class="st7" d="M1000.1,456.6c4.7,1.9,7.2,6.3,6.3,11.9c-0.9-4.4-3.2-7.9-6.3-11C1000.2,457.2,1000.2,456.9,1000.1,456.6z"/>
	<path class="st7" d="M999.7,438.1c5.7,0.9,7.5,5.6,4.8,12.7C1003.8,445.8,1004.3,441.1,999.7,438.1z"/>
	<path class="st7" d="M987.2,480.2c-0.7-4.7-1.3-9.4-2-14.1c0.4-0.1,0.8-0.1,1.2-0.2C987.4,470.7,988.3,475.4,987.2,480.2z"/>
	<path class="st6" d="M1000.1,456.6c0.1,0.3,0.1,0.6,0,0.9c-3.8-1-6.9,3.5-11.8,0.9C992.8,457.5,996,455,1000.1,456.6z"/>
	<path class="st7" d="M983.6,452.1c2.4,3.6,0.9,7.9,2.3,11.7C983.5,460.2,984.3,456,983.6,452.1z"/>
	<path class="st7" d="M1009.7,479.6c-2.1-2.2-2.1-5.1-2.4-7.9c2.2,1.9,1.8,5,3.3,7.2C1010.3,479.1,1010,479.3,1009.7,479.6z"/>
	<path class="st1" d="M987.4,458.6c-0.2,0.2-0.4,0.3-0.5,0.5c-0.2-0.2-0.3-0.4-0.5-0.7c0-0.1,0.2-0.3,0.2-0.3
		C986.9,458.2,987.1,458.4,987.4,458.6z"/>
	<path class="st9" d="M242,421c-2.8-0.4-5.3-0.7-7.7-1c-1.7-0.2-2-1.3-2-2.6c0.1-1.6,1.2-1.4,2.4-1.3c3.7,0.4,7.4,0.9,11.1,1.2
		c1.9,0.1,2.2,1.1,2.5,2.6c2.9,13.1,5.9,26.3,8.8,39.4c0.3,1.2,1.3,3-0.9,3.4c-1.8,0.3-1.5-1.6-1.9-2.6c-1-3.3-0.3-8.6-3.1-9.6
		c-5.1-1.9-10.9-1.7-16.5-2.3c-1.9-0.2-2,1.7-2.7,2.8c-1,1.9-1.7,3.9-2.8,5.8c-0.5,1,0,3.5-2.3,2.4c-1.3-0.7-1-2.2-0.3-3.7
		c4.1-9.1,8.2-18.3,12.3-27.4C239.9,425.8,240.9,423.6,242,421z M245.9,422c-3.6,7.3-8,14.3-10.5,22.3c5.5,0.6,10.4,1.1,15.8,1.7
		C249.4,437.6,247.6,429.8,245.9,422z"/>
	<path class="st6" d="M306.6,451c-0.2,3.7-0.4,7.4-0.7,11.2c-0.5,8-2.4,9.7-10.3,9.3c-2.2-0.1-4.3-0.5-6.4-0.8c0-0.6,0-1.2,0-1.8
		c1.9,0.1,3.7,0.1,5.6,0.2c1.9,2.7,3.9,2.3,5.7-0.1c2.5-0.8,3.6-2.5,3.7-5.1c0.3-4.3,0.7-8.6,1-12.9C305.6,451,306.1,451,306.6,451z
		"/>
	<path class="st7" d="M306.6,451c-0.5,0-1,0-1.5,0c-0.3-10.6-0.3-10.6-10.9-11.3c-1.1-0.1-2.2-0.2-3.2-0.4c-0.2,0-0.4-0.4-0.6-0.6
		C301.4,434.6,307.7,439.3,306.6,451z"/>
	<path class="st7" d="M267.8,455.7c-0.4,0-0.7,0-1.1,0c0.8-8.3,1.5-16.6,2.3-25.4C269.4,439.1,268.6,447.4,267.8,455.7z"/>
	<path class="st7" d="M297.6,417.5c-4.5-0.3-8.1,2.1-11.8,3.9C288.8,416.6,291.6,415.7,297.6,417.5z"/>
	<path class="st7" d="M299.1,418.3c5.1,1,7.6,4.5,7.1,9.7C305.5,423.8,302.1,421.5,299.1,418.3z"/>
	<path class="st6" d="M288.4,459.7c4,1.1,8.2,0.4,12.1,1.6C296.3,462.5,292.1,462.5,288.4,459.7z"/>
	<path class="st6" d="M278.9,446.2c-1.1-4.3-0.9-8.7,0.1-13c0.5,0,0.9,0,1.4,0c-1.1,4.3-0.7,8.7-0.4,13
		C279.6,446.2,279.3,446.2,278.9,446.2z"/>
	<path class="st7" d="M280.4,433.2c-0.5,0-0.9,0-1.4,0c0.4-3.3,1.6-6.2,4.4-8.6C282.4,427.5,281.4,430.4,280.4,433.2z"/>
	<path class="st8" d="M289.1,468.9c0,0.6,0,1.2,0,1.8c-1.8-0.5-5.1,1.1-5.1-1.4C284,467.6,287.3,469.1,289.1,468.9z"/>
	<path class="st7" d="M300.4,469c-1.9,2.4-3.8,2.8-5.7,0.1C296.5,469,298.5,469,300.4,469z"/>
	<path class="st7" d="M278.9,446.2c0.4,0,0.7,0,1.1,0c0.8,1.2,1,2.4,0.5,3.9C278.9,449.1,278.7,447.8,278.9,446.2z"/>
	<path class="st7" d="M282.4,454.8c-1.4-0.9-2-2.1-1.6-3.9c2,0.3,1.4,2.3,2.3,3.3C282.9,454.4,282.7,454.6,282.4,454.8z"/>
	<path class="st7" d="M283.2,454.2c0.3,0.5,0.9,0.9,0.1,1.4c-0.1,0.1-0.5-0.5-0.8-0.8C282.7,454.6,282.9,454.4,283.2,454.2z"/>
	<path class="st9" d="M490,446.8c-0.3,6.3-1.8,12.5-6.2,17.7c-4.3,5.2-16,5.1-20.1-0.3c-7.7-10.4-9.4-21.7-3.6-33.6
		c2.5-5,6.5-8.3,12.5-8.6c6-0.3,9.9,3.2,12.8,7.6C488.7,434.7,489.9,440.6,490,446.8z M460.2,443.9c-0.2,5.3,0.8,10.4,3.7,14.7
		c2.3,3.6,5.4,6.9,10.3,6.6c4.7-0.2,7.7-3.2,9.8-7.1c4-7.5,3.7-15.3,0.7-22.9c-1.9-4.9-5.2-8.7-11.2-8.9c-5.9-0.2-9.2,2.9-11.4,7.7
		C460.5,437.1,460.1,440.5,460.2,443.9z"/>
	<path class="st8" d="M428.7,447.2c-1.1,5.8-4.9,3.4-8.3,2.9c-12.4-1.8-12.4-1.7-12.6,10.4c-0.1,3.1-0.1,6.2-0.4,9.3
		c-0.3,2.5,0.1,3.7,3,3.6c4.5-0.1,9,0.2,13.5,0.1c3.9-0.1,7.4-1.1,8.6-5.5c1.3-4.6,2-9.4-1.9-12.9c-2.3-2.1-0.4-1.5,0.6-1.8
		c0.3,0.1,0.6,0.2,1,0.3c4.6,5.1,4.9,11.2,2.2,16.9c-2.4,5.1-7.4,7.1-13.1,6.5c-1.1-0.1-2.2,0-3.3-0.1c-13.8-0.5-13.6-0.5-12.8-14.4
		c0.7-11.5,1-23,1.7-34.5c0.2-3.2-0.2-5.1-4-4.5c-0.9,0.1-2.5,0.4-2.5-1.3c0-1.8,1.5-1.2,2.4-1.1c6.6,0.6,13.4,0.2,19.9,1.8
		c-1.7,1.6-3.8,0.3-5.6,0.8c-8.2,0.1-8.2,0.1-8.4,8.4c0,0.6-0.1,1.3,0,1.9c0.6,4-2.4,9.3,0.8,11.8c2.6,2.1,7.6,0.4,11.5,2
		c2.4,1,4.4-2.8,7.3-1.7C428.5,446.6,428.6,446.9,428.7,447.2z"/>
	<path class="st6" d="M417.3,423.8c1.8-0.5,3.9,0.8,5.6-0.8c11.7,2.3,14.1,9.7,11.4,18.5c-0.4,1.2-0.7,2.3-2,1.9
		c-1.8-0.5-0.2-1.8-0.1-2.5c2.2-10.2-0.3-14-10.8-15.3C419.8,425.4,418.3,425.1,417.3,423.8z"/>
	<path class="st2" d="M428.7,447.2c-0.1-0.3-0.2-0.6-0.3-0.9c0.5-0.1,1.1-0.2,1.6-0.2c0.1,0.4,0.3,0.9,0.1,1.2
		C429.8,448,429.2,447.4,428.7,447.2z"/>
	<path class="st2" d="M432.3,453.7c-0.3-0.1-0.6-0.2-1-0.3c0.2-0.3,0.4-0.6,0.6-0.9C432,452.9,432.1,453.3,432.3,453.7z"/>
	<path class="st2" d="M429.5,451.9c-0.2,0.1-0.3,0.2-0.5,0.3c0.1-0.2,0.2-0.3,0.3-0.5C429.4,451.8,429.5,451.9,429.5,451.9z"/>
	<path class="st2" d="M429.4,451.8c0.1-0.1,0.2-0.2,0.3-0.4c-0.1,0.2-0.1,0.3-0.2,0.5C429.5,451.9,429.4,451.8,429.4,451.8z"/>
	<path class="st8" d="M178.2,473.1c4.9-16.4,9.8-32.3,14.6-48.3c0.5-1.8,1.2-3.5,1.7-5.3c0.3-1.2,0.2-2.8,2.1-2.2
		c1.7,0.6,0.9,2.1,0.6,3.2c-1.5,5.1-3.2,10.1-4.7,15.1c-4,12.9-8,25.7-11.8,38.6c-0.6,2-1.4,2.4-3.1,2.4c-1.8,0-2.1-0.8-2.6-2.4
		c-4.9-16.3-10.1-32.6-15-48.9c-0.8-2.7-1.2-5.2-4.9-4.6c-1.6,0.3-1.6-1.1-1.6-2.2c-0.1-1.4,0.9-1.4,1.9-1.4c2.8,0,5.2-0.5,6.4,3.8
		c4.5,16.3,9.6,32.4,14.6,48.5C176.6,470.6,176.4,472,178.2,473.1z"/>
	<path class="st10" d="M1079.7,423.7c2.2,0.1,4.7-1,4.6,3.1c0,3.2-0.1,5-4.1,5.3c-8.4,0.5-8.6,0.8-8.1,9.2c0.7,10.7,1.6,21.4,2.6,32
		c0.2,2.6,0.1,4.4-3.3,4.5c-2.3,0.1-2.9-0.6-3-2.8c-0.8-12.9-2-25.7-2.7-38.6c-0.2-3.2-1.2-3.5-3.8-2.9c-2,0.4-4,0.4-6,0.5
		c-2,0.1-4.3,1.1-4.4-2.7c-0.1-3.1,0.7-4.4,3.9-4.5C1063.6,426.5,1071.7,425.8,1079.7,423.7z"/>
	<path class="st11" d="M546.4,472.1c0-14.2,0-27,0.1-39.7c0-1.2-1.3-3.5,1.3-3.7c3-0.1,1.8,2.4,1.8,3.8c0.1,13.7,0.1,27.4,0,41.1
		c0,1.5,1.1,3.7-1.5,4.2c-2.3,0.5-3.3-0.6-4.5-2.8c-6.4-12.8-13.1-25.4-19.8-38.1c-1.7,1-1,2.4-1,3.4c-0.1,11.4,0,22.7-0.1,34.1
		c0,1.4,0.7,3.5-1.8,3.4c-2.7,0-1.6-2.2-1.6-3.5c-0.1-12.5,0-24.9-0.1-37.4c0-1.8,0.9-4-2.6-4c-2.4,0-1.8-2.6-0.9-3.9
		c1.2-1.7,8,0,9.1,2C531.7,444.3,538.7,457.6,546.4,472.1z"/>
	<path class="st8" d="M881.4,456.4c0,4.7,0.2,9.4-0.1,14c-0.2,3.1,1,3.7,3.7,3.5c3.6-0.2,7.2,0,10.7-0.1c1.3,0,2.4-0.1,2.5,1.8
		c0.1,2.1-1,2.3-2.6,2.2c-0.3,0-0.6,0-0.9,0c-5.1-0.1-11.8,1.7-14.9-0.9c-3.4-2.7-0.8-9.6-1-14.7c-0.2-4.8,0.1-9.7-0.1-14.5
		c-0.1-2.2,1.6-5.5-2.9-5.9c-0.7-0.1-1.1-1.8-0.7-2.5c1.1-1.5,2.8-0.5,4.3-0.8c1.8-0.3,2,0.8,2,2.2
		C881.3,446.1,881.4,451.3,881.4,456.4z"/>
	<path class="st12" d="M374.4,476.7c0,0.1-0.7,0.7-1.6,1c-1.5,0.6-1.9-0.4-2.3-1.5c-0.5-1.6-1.1-3.2-1.6-4.8
		c-2.5-7.2-2.5-7.2-10.2-7.2c-0.2,0-0.3,0-0.5,0c-4,0.3-8.7-1.4-11.9,0.8c-3,2.1-2.9,6.9-4.1,10.5c-0.4,1-0.5,2.7-2.4,2.1
		c-2.2-0.8-1.5-2.4-1-3.9c2.6-7.9,5.3-15.8,8-23.7c1.5-4.5,3.1-9.1,4.6-13.6c0.8-2.4,0.6-3.8-2.5-3.4c-1.7,0.2-3.4,0-5.1,0.1
		c-1.6,0.1-2.7-0.1-2.7-2.1c0-1.8,0.6-2.5,2.4-2.4c4.4,0.1,8.7,0,13.1,0c1.3,0,2.2,0.2,2.7,1.8c4.7,14.7,9.7,29.3,14.5,44
		C373.9,474.8,374,475.2,374.4,476.7z M356.3,433.1c-2.8,8.4-5.4,15.8-7.9,23.2c-0.5,1.6-1.6,3.5,1.5,3.5c4.3,0,8.7,0,13,0
		c1.9,0,2-1,1.6-2.4C361.9,449.7,359.2,441.9,356.3,433.1z"/>
	<path class="st12" d="M712.8,464.8c-1,9.2-1,9.2,8.4,9.5c3.1,0.1,6.2,0.1,9.3,0.3c1.8,0.1,3.4,1.1,3.2,3.2
		c-0.2,2.4-2.2,1.1-3.3,1.1c-6.2-0.2-12.4-0.8-18.6-0.8c-3.6,0-3.6-1.8-3.4-4.3c0.6-12.3,1.2-24.5,1.8-36.8c0.1-2.3,0.4-4.4-3.1-4
		c-2,0.3-2.2-1.2-2.2-2.7c0-1.9,1.2-1.8,2.6-1.7c7.9,0.5,15.8,0.9,23.7,1.4c1.7,0.1,3.7,0.2,3.7,2.5c-0.1,2.9-2.4,1.6-3.9,1.6
		c-4.7-0.1-9.4,0-14-0.6c-3.2-0.4-3.6,0.8-3.4,3.4c0.1,2.3,0,4.7-0.2,7c-0.5,6.9-0.5,6.8,6.5,7.1c3.6,0.1,7.1,0.4,10.7,0.5
		c1.5,0.1,2.7,0.1,2.6,2.2c-0.1,2.3-1.3,2.2-3.1,2.1c-4.7-0.4-9.3-0.2-14-0.8c-2.8-0.3-3.9,0.2-3.6,3.2
		C713.1,460.4,712.8,462.6,712.8,464.8z"/>
	<path class="st8" d="M787.4,448.3c-1.3,1.4,0.4,2.4,0.4,3.6c-5.7-1.8-11.5-2-17.4-2.2c-1.5,0-2.4-0.2-2.5,1.6
		c-0.2,6.7-0.5,13.3-0.8,20c-0.1,1.3,0.3,2,1.8,2c4.8,0,9.6,0.5,14.4,0.2c7.9-0.5,11.3-6.3,9.7-14.2c-0.7-3.6-4.4-4.6-5.3-7.6
		c4.8,0.7,8,5.7,8,12.2c-0.1,8.3-6.3,13.7-13.4,13.1c-4.8-0.4-9.6-0.4-14.4-0.6c-2.3-0.1-3.3-0.7-3.1-3.6c0.8-15,1-30.1,1.8-45.2
		c0.2-3.2-0.5-4.5-3.8-4.2c-1.1,0.1-2.9,0.4-2.6-1.6c0.2-1.5,1.8-0.9,2.7-0.9c7.6,0.7,15.2,0.2,22.6,2.3c1.2,0.3,2.5,0.4,2.7,2
		c-0.4,0.3-0.9,0.7-1.3,1c-5.2-0.5-10-3.1-15.4-2.8c-1.7,0.1-2.5,0.4-2.5,2.3c-0.2,5.9-0.6,11.8-0.8,17.7c-0.1,1.2-0.4,2.8,1.6,2.6
		c4.5-0.4,8.8,1.4,13.2,1.8C784.4,448.2,785.9,448.2,787.4,448.3z"/>
	<path class="st6" d="M787.4,448.3c-1.5-0.1-3-0.2-4.5-0.3c0.6-0.5,1.1-1.3,1.7-1.4c5.1-0.8,7.4-3.9,7.9-8.8c0.5-5-0.6-9.2-5.7-11.3
		c0.4-0.3,0.9-0.7,1.3-1c7.7,2.7,9.7,13.9,3.5,19.6C790.3,446.3,788.8,447.3,787.4,448.3z"/>
	<path class="st9" d="M829.9,426.9c-0.4,4.3-0.5,8.4-1.1,12.3c-0.5,3.1,0.9,3.8,3.4,4c4,0.3,8,0.9,12.1,1.2c1.7,0.1,2.6,0.5,2.4,2.4
		c-0.2,2-1.4,1.4-2.7,1.5c-4.7,0.3-8.9-2.5-13.6-2.4c-1.7,0.1-2.5,0-2.6,2c-0.1,3.3-0.7,6.5-0.8,9.7c-0.3,5.7,0.7,6.7,6.5,7.2
		c3.4,0.3,6.8,0.7,10.2,1.1c0.9,0.1,2.1-0.1,2.3,1.1c0.1,0.8,0,2-0.5,2.6c-0.8,1-1.5-0.4-2.3-0.5c-5.4-0.8-10.8-1.4-16.2-1.9
		c-3.2-0.3-4-1.5-3.7-4.7c1.2-11,2.1-22,3.3-32.9c0.3-2.4,0.1-3.5-2.5-3.4c-1.4,0-2.4-0.5-2.2-2.3c0.3-2.1,1.5-1.8,3-1.6
		c7.5,0.9,15,1.2,22.4,3.3c1,0.3,1.9,0.3,1.7,1.6c-0.2,1.3-1.1,1.3-2.1,1.2C841.4,428,835.8,427.4,829.9,426.9z"/>
	<path class="st4" d="M944.9,420.8c2,9,3.8,16.9,5.7,25.2c-5.4-0.6-10.5-1.1-16.2-1.7C937.8,436.7,941.1,429.4,944.9,420.8z"/>
	<path class="st4" d="M245.9,422c1.7,7.8,3.4,15.7,5.3,24c-5.4-0.6-10.3-1.1-15.8-1.7C237.9,436.3,242.3,429.3,245.9,422z"/>
	<path class="st1" d="M460.2,443.9c-0.1-3.4,0.4-6.8,1.8-9.9c2.2-4.8,5.6-7.9,11.4-7.7c6.1,0.3,9.3,4,11.2,8.9
		c3,7.6,3.3,15.4-0.7,22.9c-2.1,3.9-5.1,6.9-9.8,7.1c-4.9,0.2-7.9-3-10.3-6.6C461,454.2,460,449.2,460.2,443.9z"/>
	<path class="st4" d="M356.3,433.1c3,8.8,5.6,16.6,8.3,24.4c0.5,1.4,0.3,2.4-1.6,2.4c-4.3-0.1-8.7,0-13,0c-3.1,0-2-2-1.5-3.5
		C350.9,449,353.4,441.5,356.3,433.1z"/>
	<path class="st2" d="M787.7,451.8c0.9,3.1,4.6,4,5.3,7.6c1.6,7.9-1.8,13.6-9.7,14.2c-4.8,0.3-9.6-0.2-14.4-0.2
		c-1.5,0-1.8-0.7-1.8-2c0.3-6.7,0.6-13.3,0.8-20c0.1-1.8,1-1.7,2.5-1.6c5.9,0.1,11.7,0.4,17.4,2.2
		C787.8,451.9,787.7,451.8,787.7,451.8z"/>
	<path class="st4" d="M786.8,426.6c5.1,2.2,6.2,6.3,5.7,11.3c-0.5,4.9-2.8,8-7.9,8.8c-0.6,0.1-1.1,0.9-1.7,1.4
		c-4.4-0.4-8.7-2.2-13.2-1.8c-2,0.2-1.7-1.4-1.6-2.6c0.3-5.9,0.7-11.8,0.8-17.7c0.1-1.9,0.8-2.2,2.5-2.3
		C776.8,423.5,781.6,426,786.8,426.6z"/>
</g>
</svg>
